<svg width="13" height="10" viewBox="0 0 13 10" fill="none" xmlns="http://www.w3.org/2000/svg">
<path d="M7.43999 9.49643V5.75243C7.43999 4.02443 7.84533 2.74443 8.65599 1.91243C9.46666 1.0591 10.704 0.568429 12.368 0.44043L12.784 2.10443C10.9493 2.42443 10.032 3.32043 10.032 4.79243V5.08043H11.696V9.49643H7.43999ZM0.0159912 9.49643V5.75243C0.0159912 4.02443 0.421325 2.74443 1.23199 1.91243C2.04266 1.0591 3.27999 0.568429 4.94399 0.44043L5.35999 2.10443C3.52532 2.42443 2.60799 3.2991 2.60799 4.72843C2.60799 4.7711 2.60799 4.8351 2.60799 4.92043C2.62932 4.98443 2.63999 5.03776 2.63999 5.08043H4.27199V9.49643H0.0159912Z" fill="#303030"/>
</svg>
