<svg width="64" height="64" viewBox="0 0 64 64" fill="none" xmlns="http://www.w3.org/2000/svg">
<rect width="64" height="64" rx="15" fill="#F4F7FA"/>
<path d="M25.8442 46.3016H34.6844V49H23.1563V15H25.8442V46.3016Z" fill="#3B1D8F"/>
<path d="M11.6879 15H9V49H11.6879V15Z" fill="#3B1D8F"/>
<path d="M39.463 32.03C39.463 39.8854 45.8542 46.3016 53.679 46.3016V49C44.3012 49 36.7153 41.3845 36.7153 32.03C36.7751 22.6155 44.3609 15 53.7387 15V17.6984C45.8542 17.6984 39.463 24.1146 39.463 32.03Z" fill="#3B1D8F"/>
<path d="M55.6501 31.97C55.6501 33.0494 54.8139 33.8889 53.7387 33.8889C52.6636 33.8889 51.8273 33.0494 51.8273 31.97C51.8273 30.8907 52.6636 30.0511 53.7387 30.0511C54.7542 30.0511 55.6501 30.9506 55.6501 31.97Z" fill="#3B1D8F"/>
</svg>
