<svg width="41" height="58" viewBox="0 0 41 58" fill="none" xmlns="http://www.w3.org/2000/svg">
<rect width="41" height="58" rx="5" fill="url(#paint0_linear_0_630)"/>
<line x1="1.5" y1="-1.5" x2="29.418" y2="-1.5" transform="matrix(-1 0 0 1 36.9672 12)" stroke="url(#paint1_linear_0_630)" stroke-width="3" stroke-linecap="round"/>
<line x1="1.5" y1="-1.5" x2="29.418" y2="-1.5" transform="matrix(-1 0 0 1 36.9672 18)" stroke="url(#paint2_linear_0_630)" stroke-width="3" stroke-linecap="round"/>
<line x1="1.5" y1="-1.5" x2="29.418" y2="-1.5" transform="matrix(-1 0 0 1 36.9672 24)" stroke="url(#paint3_linear_0_630)" stroke-width="3" stroke-linecap="round"/>
<line x1="1.5" y1="-1.5" x2="29.418" y2="-1.5" transform="matrix(-1 0 0 1 36.9672 30)" stroke="url(#paint4_linear_0_630)" stroke-width="3" stroke-linecap="round"/>
<line x1="16.6475" y1="46.8333" x2="7.54916" y2="46.8333" stroke="url(#paint5_linear_0_630)" stroke-width="3" stroke-linecap="round"/>
<g clip-path="url(#clip0_0_630)">
<path fill-rule="evenodd" clip-rule="evenodd" d="M36.9346 46.5101C36.9054 46.6862 36.8779 46.8525 36.8777 47.0037C36.8774 47.1646 36.9045 47.3371 36.9331 47.5196L36.9333 47.5205C36.9907 47.8859 37.05 48.2637 36.9018 48.6206C36.7536 48.9775 36.444 49.2021 36.1446 49.4193L36.1442 49.4196C35.9945 49.5282 35.8531 49.6308 35.7392 49.7446C35.6322 49.8514 35.5339 49.9883 35.4298 50.1332L35.4297 50.1333C35.2216 50.4228 34.9859 50.751 34.613 50.905C34.442 50.9757 34.2654 51 34.0905 51C33.8843 51 33.6802 50.9662 33.4899 50.9346C33.3138 50.9054 33.1475 50.8779 32.9962 50.8777H32.9943C32.8338 50.8777 32.6617 50.9047 32.4796 50.9333L32.4794 50.9333L32.4793 50.9334C32.114 50.9907 31.7362 51.0501 31.3794 50.9019C31.0225 50.7537 30.7979 50.4441 30.5807 50.1447L30.5807 50.1447C30.472 49.9948 30.3693 49.8533 30.2554 49.7393C30.1486 49.6323 30.0117 49.5339 29.8668 49.4298L29.8666 49.4297L29.8666 49.4297C29.5771 49.2217 29.249 48.9859 29.095 48.6131C28.941 48.2403 29.0071 47.8416 29.0654 47.49C29.0946 47.3138 29.1221 47.1475 29.1223 46.9963C29.1226 46.8353 29.0954 46.6626 29.0667 46.4798L29.0667 46.4795C29.0093 46.1141 28.9499 45.7362 29.0981 45.3794C29.2464 45.0225 29.5559 44.7979 29.8553 44.5807L29.8555 44.5806C30.0053 44.4719 30.1468 44.3692 30.2607 44.2554C30.3677 44.1486 30.466 44.0117 30.5702 43.8668L30.5703 43.8666C30.7783 43.5771 31.0141 43.249 31.3869 43.095C31.7597 42.941 32.1583 43.0071 32.51 43.0654L32.51 43.0654L32.5102 43.0654C32.6863 43.0946 32.8526 43.1221 33.0037 43.1223H33.0056C33.1662 43.1223 33.3382 43.0953 33.5204 43.0667L33.5205 43.0667C33.8859 43.0092 34.2637 42.9499 34.6206 43.0981C34.9775 43.2463 35.202 43.5559 35.4192 43.8552L35.4193 43.8553L35.4194 43.8555C35.5281 44.0053 35.6308 44.1468 35.7446 44.2607C35.8514 44.3677 35.9882 44.466 36.1331 44.5701L36.1334 44.5703L36.1334 44.5703C36.4229 44.7783 36.751 45.0141 36.905 45.3869V45.3869C37.059 45.7597 36.9929 46.1584 36.9346 46.5101ZM30.1109 48.2207C30.2384 48.5221 30.4103 48.7986 30.6231 49.0454L30.9559 48.7127C30.5672 48.2494 30.3331 47.6521 30.3331 47C30.3331 45.5271 31.5271 44.3331 33 44.3331C33.652 44.3331 34.2493 44.5673 34.7127 44.9559L35.0454 44.6232C34.7986 44.4103 34.5221 44.2384 34.2207 44.1109C33.8338 43.9473 33.4231 43.8643 33 43.8643C32.5769 43.8643 32.1662 43.9473 31.7793 44.1109C31.4059 44.2689 31.0706 44.4949 30.7827 44.7827C30.4949 45.0706 30.2689 45.4059 30.1109 45.7793C29.9473 46.1662 29.8643 46.5769 29.8643 47C29.8643 47.4231 29.9473 47.8338 30.1109 48.2207ZM35.2173 49.2173C35.5051 48.9295 35.7311 48.5942 35.8891 48.2207C36.0527 47.8338 36.1357 47.4231 36.1357 47C36.1357 46.5769 36.0527 46.1662 35.889 45.7793C35.7616 45.4779 35.5897 45.2014 35.3768 44.9546L35.0441 45.2874C35.4327 45.7507 35.6669 46.348 35.6669 47C35.6669 48.4729 34.4729 49.6669 33 49.6669C32.3479 49.6669 31.7507 49.4328 31.2873 49.0442L30.9546 49.3769C31.2014 49.5898 31.4779 49.7616 31.7793 49.8891C32.1662 50.0527 32.5769 50.1357 33 50.1357C33.4231 50.1357 33.8338 50.0527 34.2207 49.8891C34.5941 49.7312 34.9294 49.5051 35.2173 49.2173Z" fill="url(#paint6_linear_0_630)"/>
</g>
<defs>
<linearGradient id="paint0_linear_0_630" x1="8.84314" y1="0" x2="41" y2="0" gradientUnits="userSpaceOnUse">
<stop stop-color="#E1D8FF"/>
<stop offset="1" stop-color="#F4ECFF"/>
</linearGradient>
<linearGradient id="paint1_linear_0_630" x1="2.68852" y1="0" x2="27.2213" y2="0" gradientUnits="userSpaceOnUse">
<stop stop-color="#BBA6FF"/>
<stop offset="1" stop-color="#CDBBEF"/>
</linearGradient>
<linearGradient id="paint2_linear_0_630" x1="2.68852" y1="0" x2="27.2213" y2="0" gradientUnits="userSpaceOnUse">
<stop stop-color="#BBA6FF"/>
<stop offset="1" stop-color="#CDBBEF"/>
</linearGradient>
<linearGradient id="paint3_linear_0_630" x1="2.68852" y1="0" x2="27.2213" y2="0" gradientUnits="userSpaceOnUse">
<stop stop-color="#BBA6FF"/>
<stop offset="1" stop-color="#CDBBEF"/>
</linearGradient>
<linearGradient id="paint4_linear_0_630" x1="2.68852" y1="0" x2="27.2213" y2="0" gradientUnits="userSpaceOnUse">
<stop stop-color="#BBA6FF"/>
<stop offset="1" stop-color="#CDBBEF"/>
</linearGradient>
<linearGradient id="paint5_linear_0_630" x1="17.0955" y1="45.3333" x2="7.4957" y2="45.3333" gradientUnits="userSpaceOnUse">
<stop stop-color="#BBA6FF"/>
<stop offset="1" stop-color="#CDBBEF"/>
</linearGradient>
<linearGradient id="paint6_linear_0_630" x1="33" y1="43" x2="33" y2="51" gradientUnits="userSpaceOnUse">
<stop stop-color="#4614E8"/>
<stop offset="1" stop-color="#BCA7FF"/>
</linearGradient>
<clipPath id="clip0_0_630">
<rect width="8" height="8" fill="white" transform="translate(29 43)"/>
</clipPath>
</defs>
</svg>
