<?xml version="1.0" standalone="no"?>
<!DOCTYPE svg PUBLIC "-//W3C//DTD SVG 20010904//EN"
 "http://www.w3.org/TR/2001/REC-SVG-20010904/DTD/svg10.dtd">
<svg version="1.0" xmlns="http://www.w3.org/2000/svg"
 width="700.000000pt" height="700.000000pt" viewBox="0 0 700.000000 700.000000"
 preserveAspectRatio="xMidYMid meet">
<metadata>
Created by potrace 1.14, written by Peter Selinger 2001-2017
</metadata>
<g transform="translate(0.000000,700.000000) scale(0.100000,-0.100000)"
fill="#000000" stroke="none">
<path d="M980 3500 l0 -1860 150 0 150 0 0 1860 0 1860 -150 0 -150 0 0 -1860z"/>
<path d="M2530 3500 l0 -1860 630 0 630 0 0 150 0 150 -480 0 -480 0 0 1710 0
1710 -150 0 -150 0 0 -1860z"/>
<path d="M5730 5354 c-14 -2 -65 -9 -114 -15 -675 -84 -1280 -589 -1501 -1253
-75 -224 -100 -402 -92 -659 4 -141 11 -209 31 -303 102 -485 388 -907 797
-1176 177 -117 423 -221 619 -263 90 -20 286 -44 353 -45 l47 0 0 148 0 149
-112 6 c-614 35 -1162 465 -1363 1068 -59 178 -78 322 -72 534 6 196 23 294
77 457 198 589 753 1018 1367 1056 l108 7 3 148 3 147 -63 -1 c-35 -1 -74 -3
-88 -5z"/>
<path d="M5780 3688 c-128 -69 -148 -248 -39 -342 136 -116 341 -24 343 153 1
114 -81 202 -197 209 -51 3 -70 -1 -107 -20z"/>
</g>
</svg>
